<svg id="Layer_1" data-name="Layer 1" xmlns="http://www.w3.org/2000/svg" viewBox="0 0 1355.79 383.29"><defs><style>.cls-1{fill:#d2342e;}.cls-2{fill:#f69679;}.cls-3{fill:#f26649;}.cls-4{fill:#b72c26;}.cls-5{fill:#fff;}</style></defs><title>logo</title><path class="cls-1" d="M1411.23,698.07c34.48-25.86,55-12.24,70.77.84,44.14,36.62,64.93,19.31,75,4.31,14-20.76-11.62-37-11.62-37,19.85-51.32-52.6-54.54-52.6-54.54-56.41-2.92-101.17,39.22-101.17,39.22.08-13.09,26-33.4,26-33.4,36.77-30.24,20-45.18,7.64-50-37-14.39-56.74,41.41-56.74,41.41-6.33,13.77-7.6,30.44-6.38,46.91,32.89,9.87,43.1,27.47,49.14,42.26" transform="translate(-205.39 -565.12)"/><path class="cls-2" d="M1342.92,846.08c-3.05-8.28-9.14-19.43-14.7-31.43h0c-8.35-17.31-5.44-37.18-4.36-48.44,0-.11,0-.2.06-.31a20.35,20.35,0,0,0,0-5.89.55.55,0,0,1,0-.12h0c-.46-3.21-1.8-6.75-5.49-8.66l-1-.46a11.72,11.72,0,0,0-3.64-1.15c-9.52-1.09-13.69,12.51-16.27,18-13.24,28.08-61.22,44.36-61.22,44.36-14.12,5.84-31.73,19.29-23.4,56,0,0,1.08,22.93,29,38.32a60.43,60.43,0,0,0,51,6.6c4.94-1.58,10.8-5.42,14.25-15.26,0,0,55.36,2.15,35.64-51.51" transform="translate(-205.39 -565.12)"/><path class="cls-3" d="M1552.4,822h0c.45-10.75-11.42-15.1-18.6-18.11-17.67-7.4-17.32-29.86-22.36-40.77-26-56.35-85.14-41.53-98.13-37.48-2.77,13.91-9,25.43-.72,33.43q5.32,6.88,10.63,13.78c3.65,3.89,5.33,8.24.39,11-4.77,2.86-11.38,4-4.73,12.21,2.71,3,5.47,5.51,3.05,7.68l-7.48,5.6c3.46,2.84,6.42,5.78,3.54,9.93-3.52,4.61-8.88,7.54-5.21,17.61,2.58,10.89-6.26,15.35-18.7,13.18-14-3.62-27.69-6.82-34.83-1.18,14.09,13.82,17.48,26.9,13.7,39.48h.08c56.59,54.78,93.34,9.92,93.34,9.92,66,17.29,56.23-39.5,56.23-39.5s29.75-8.26,29.83-36.8" transform="translate(-205.39 -565.12)"/><path class="cls-4" d="M1255.4,616c16.36,6,20.49.09,25.66-6.4,6.7-8.41,8.92-29.84,33.45-23.77,21.82,5.4,29,47.88,26.68,82.11h0l-.08,1.07c-.25,3.42-.59,6.74-1,9.91-2.18,17.53-9,51.24-22.12,51.24-6.47,0-10.68-12-12.72-16.94-23-55.16-50.84-56.1-73.84-64.65-20-7.42-6.14-27.43-7.32-25.7,0,0,7.77-15.51,31.31-6.87" transform="translate(-205.39 -565.12)"/><path class="cls-5" d="M456.87,853.91c2,6.8.82,10.88-3.53,12.21s-8.25,1.89-11.33.67c-3.74-1.48-7-4.54-10.41-8h-.66q-11.47,6.15-29.62,7.48-32.42,0-43.89-19.48Q351,834.65,351,827.17q0-28.54,24.55-36.55,9.74-3.74,16.82-3.74h3.2q20.54,0,31.88,6H428A160.55,160.55,0,0,0,429.21,773q0-11.22-2-11.21c-2-.88-4.36-.36-7.33.14a10,10,0,0,1-1.34,0q-4.8,0-29.21,7.6l-2.4.27q-13.21,0-21.08-9.07a39.13,39.13,0,0,1-6.94-18.54q0-5.48,4.67-5.47,8,1.34,26.81,5.47,20.53,3.74,27.08,5.07,15.34.93,23.08,6.94Q456.3,765.69,456.3,790V802.5q-2.44,41.19.57,51.41m-82.52-23.29q1.47,11.61,15.61,13a30.08,30.08,0,0,0,8,.93h2.13q17.47,0,23.62-11.74a15.34,15.34,0,0,0,1.2-6.54q0-14.4-17.35-18.81a40.51,40.51,0,0,0-9.73-.93c-13.7,1.51-20.17,7.33-23.49,16.28-.63,1.72-.88,4.22,0,7.86" transform="translate(-205.39 -565.12)"/><path class="cls-5" d="M489,732.43q9.48,0,27.08,16.28a24.15,24.15,0,0,0,9.61,2.13h11.47q36.15,0,49.49,30.82,3.87,11.21,3.87,49.36,0,27.21-12.8,35a11.06,11.06,0,0,1-5.2,1.34h-.81q-10.66,0-13.21-16.82v-5.07l.27-3.46-.27-.14.27-3.6v-2.93l.26-13.08c-1.78-28.1-1.77-44.84-3.6-49.22a11.06,11.06,0,0,0-10.14-7.2h-2.8q-17.21,2-21.48,2l-5.86-.4a227.85,227.85,0,0,0-1.74,29.34v2.93l.27,3.34-.27.4.27,3.6q0,16.54,3.07,43.76,0,12.27-8.41,15.2a13.39,13.39,0,0,1-4.54.94h-2.39q-11.48,0-15.48-11.34a32.46,32.46,0,0,1-1.2-8.67l1.2-12.54-.27-.4v-.26q2.4-15.87,2.41-39.63v-1.61q0-29.21-5.34-44.42l-.66-6.28q.8-8.94,6.54-8.93Z" transform="translate(-205.39 -565.12)"/><path class="cls-5" d="M657.23,718.12c6,0,17.3.47,28.41,9.87a6,6,0,0,1,2.26,4.54v.27l-2.26,10a59.52,59.52,0,0,1,18.68,9.34q22.93,16.68,22.94,43.5v2.13q0,30.15-24.28,39.76a57.19,57.19,0,0,1-20.81,4.26l-2.54,6.28c0,.44,1.64,1,4.94,1.74a83.45,83.45,0,0,1,18.94,6.8q28.68,17.61,28.68,42.43-1.32,39.88-32.28,45.89A89.06,89.06,0,0,1,677.63,948v.39l-.26-.39h-.27l-1.6.39q-40.69,0-59.37-27.48-6-12.54-6-29.09,0-16.27,20.69-32.29a61.38,61.38,0,0,1,26.41-10.14c2.48-6.93,2.85-10.4,1.07-10.4q-21-5.32-32.16-18.67-10.53-14-10.54-30,0-23.61,19.75-38.82,14-8.68,26.68-8.67.27-7.47-7.21-13.74a8.73,8.73,0,0,1-3.46-6.8q0-4.17,5.88-4.17m-21.75,173.3v2q0,23.48,20.95,30.15a54.1,54.1,0,0,0,11.6,1.2q27.5,0,35.76-17.07c2-6.23,2.44-10.63,1.47-13.21v-2.67q0-12.29-21-21.35a40.58,40.58,0,0,0-13.34-2q-25.34,0-34.42,15.74a28.35,28.35,0,0,0-1.07,7.2m2.8-101.65q0,17.09,19.48,23a58.74,58.74,0,0,0,13.34,1.33h1.6q22.8,0,30.15-13.75a25.28,25.28,0,0,0,1.61-8q0-16.41-20.55-23.88a33.16,33.16,0,0,0-11.21-1.6h-4.26q-20.55,0-29.1,16.68a29.82,29.82,0,0,0-1.06,6.27" transform="translate(-205.39 -565.12)"/><path class="cls-5" d="M757.51,732.43q9.47,0,27.08,16.28a24.15,24.15,0,0,0,9.61,2.13h11.47q36.15,0,49.49,30.82Q859,792.87,859,831q0,27.21-12.8,35a11.06,11.06,0,0,1-5.2,1.34h-.81q-10.66,0-13.2-16.82v-5.07l.27-3.46-.27-.14.27-3.6v-2.93l.26-13.08c-1.77-28.1-1.77-44.84-3.59-49.22a11.06,11.06,0,0,0-10.15-7.2H811q-17.21,2-21.48,2l-5.87-.4a227.94,227.94,0,0,0-1.73,29.34v2.93l.27,3.34-.27.4.27,3.6q0,16.54,3.07,43.76,0,12.27-8.41,15.2a13.38,13.38,0,0,1-4.53.94h-2.41q-11.48,0-15.48-11.34a33.29,33.29,0,0,1-1.2-8.67l1.2-12.54-.26-.4v-.26q2.4-15.87,2.39-39.63v-1.61q0-29.21-5.33-44.42l-.67-6.28q.8-8.94,6.54-8.93Z" transform="translate(-205.39 -565.12)"/><path class="cls-5" d="M985,855q3,10.2-3.53,12.21c-4.36,1.33-8.26,1.89-11.35.67-3.74-1.48-7-4.54-10.4-8h-.67q-11.46,6.15-29.61,7.48-32.41,0-43.89-19.48-6.41-12.14-6.41-19.61,0-28.54,24.55-36.55c6.5-2.49,12.09-3.74,16.81-3.74h3.2q20.55,0,31.89,6h.53a162.53,162.53,0,0,0,1.2-19.88q0-11.22-2-11.21c-2-.88-4.37-.36-7.34.14a11.63,11.63,0,0,1-1.32,0q-4.82,0-29.22,7.6l-2.41.27q-13.2,0-21.08-9.07a39.21,39.21,0,0,1-6.93-18.54q0-5.47,4.66-5.47,8,1.34,26.82,5.47c13.69,2.49,22.67,4.49,27.08,5.07,10.15,1.33,17.91,2.94,23.08,6.94q15.73,11.47,15.73,35.75v12.54Q982,844.75,985,855m-82.51-23.28q1.47,11.61,15.6,12.95a30.08,30.08,0,0,0,8,.93h2.13q17.47,0,23.61-11.74a15.18,15.18,0,0,0,1.21-6.54q0-14.4-17.34-18.81a40.48,40.48,0,0,0-9.74-.93q-20.55,2.26-23.47,16.28-1.37,2.38,0,7.86" transform="translate(-205.39 -565.12)"/><path class="cls-5" d="M1157.58,789.18c-2.49-22.15-13.27-31.69-45-32.4a90.09,90.09,0,0,0-29.57,4.17q-12.27-5.43-36.33-6.19a96.71,96.71,0,0,0-9.61-4.8q-17.61-13.61-25.75-13.61l-.4.4q-5.73,0-6.54,8.93l.67,6.28q5.34,12.56,5.34,44.42V798q0,23.75-2.41,39.63v.26l.27.4-1.2,12.54a32.87,32.87,0,0,0,1.2,8.67q4,11.32,14.14,11.34h2.4a13.2,13.2,0,0,0,4.54-.94q8.4-2.92,8.4-15.2-3.06-27.23-3.06-43.76l-.27-3.6.27-.4-.27-3.34v-2.93q-1.32-21.35,7.61-26.28,9.62-4,18.41-.66,6.4,3.07,6.28,24.15l-.27,37.35v2.94l-.26,3.6.26.14-.26,3.47v5.07q5.2,16.8,13.21,16.81h.79a10.93,10.93,0,0,0,4.45-1q7.44-.84,12.37-16.76v-3.73a82,82,0,0,0,1.2-14.81q-.49-25.66-1.37-40.6c.24-7.23.6-11.47,1.07-12.76l.94,0a1.25,1.25,0,0,0,1,0,155.37,155.37,0,0,1,16.91,0q11.21.87,11.55,9.48t.33,40.09l-.4,12.93V843s-.57,2.76-.26,3.6c0,.09.23.18.26.27.28.79-.23,2.5-.26,3.33a36.1,36.1,0,0,0,0,5.2c1.8,11.53,8,16.67,13.21,16.67h.93a12.67,12.67,0,0,0,5.21-1.2q12.8-7.87,15.48-32.42c-.92-24.47-4.25-40.54-5.23-49.24" transform="translate(-205.39 -565.12)"/><path class="cls-5" d="M321.93,853.36c1.38,1.91,8.5,11.67,25.51,28q8.55,7,8.56,10.4,0,5.34-11.76,6.26-10.23,0-40-8.86-6.11-4.14-9.32-16-9.31-24.6-31.92-52.4c-2.55-2.55-4.19-3.82-4.89-3.82q-4.89,4.89-4.9,7.8c0,16.8-3.4,40.63-14.41,70.78-3.77,12.23-8.86,19-11.1,20.89,0,0-6.58,1-6-17.11l0-74.79h0c-.39-12.38-.58-27-.58-44.07l-.45-8.56.45-.31-.45-4.43V749.17l-.31-4.12.31-.46-.31-5.5V724.88l-.45-7,.45-.32-.45-5.65V700.28q1.51-17.25-14.51-36.81V662.4q2.43-6.42,12.68-6.42,19.55,0,33,20.93c2.75,3,4.12,5.55,4.12,7.79v.77L254,701.05V803.56h.77q26.73-28.57,33.45-40.33,15.12-26,19.86-30.86a12.63,12.63,0,0,1,8.55-3.37q11.46,0,17.87,18.17l.46,5.65v.77q0,19.26-28.41,30.86-12.54,6.12-19.26,12.38v.3Z" transform="translate(-205.39 -565.12)"/><path class="cls-5" d="M364.92,614.18a4.49,4.49,0,0,1,4.56-4.56H388c5.89,0,10.52,1.62,13.46,4.56a11.55,11.55,0,0,1,3.46,8.54v.14c0,6.18-3.53,9.49-7.36,11.48,6,2.06,10.23,5.51,10.23,12.51V647c0,9.2-7.58,14.13-19.06,14.13H369.47a4.48,4.48,0,0,1-4.56-4.56V614.18Zm21.26,17.14c5.81,0,9.71-2.29,9.71-7v-.14c0-4-3.24-6.55-9.05-6.55h-13v13.69Zm2.65,21.78c6.18,0,9.93-2.42,9.93-7.06v-.15c0-4.34-3.46-6.92-10.59-6.92H373.82V653.1Z" transform="translate(-205.39 -565.12)"/><path class="cls-5" d="M418,656.56V614.18a4.49,4.49,0,0,1,4.56-4.56h30a4.08,4.08,0,0,1,4,4,4,4,0,0,1-4,4.05H427.08v13.39h22.15a4.1,4.1,0,0,1,4,4.12,4,4,0,0,1-4,4H427.08V653h25.83a4.08,4.08,0,0,1,4,4.05,4,4,0,0,1-4,4H422.6a4.5,4.5,0,0,1-4.57-4.56m15.31-52.83a7.38,7.38,0,0,1-5.44,2c-1.1,0-2-.51-2-1.47a3.56,3.56,0,0,1,.88-1.76l4.86-6.11a5,5,0,0,1,4.27-2.14h2.65a4.91,4.91,0,0,1,4.27,2.14l4.86,6.11a3.64,3.64,0,0,1,.88,1.76c0,1-1,1.47-2.13,1.47a7.47,7.47,0,0,1-5.44-2l-3.83-3.31Z" transform="translate(-205.39 -565.12)"/><path class="cls-5" d="M467.32,613.88a4.54,4.54,0,0,1,4.56-4.57h1c2.21,0,3.46,1.1,4.71,2.65l25.75,33.33V613.65a4.45,4.45,0,0,1,8.9,0v43.26a4.4,4.4,0,0,1-4.42,4.49h-.37c-2.13,0-3.46-1.1-4.71-2.72L476.21,624.4v32.67a4.46,4.46,0,0,1-8.91,0V613.88Z" transform="translate(-205.39 -565.12)"/><path class="cls-5" d="M525.44,613.73a4.53,4.53,0,0,1,9,0V631h24.58v-17.3a4.53,4.53,0,0,1,9,0V657a4.53,4.53,0,0,1-9,0V639.42H534.49V657a4.53,4.53,0,0,1-9,0Z" transform="translate(-205.39 -565.12)"/><path class="cls-5" d="M618.36,658.18l-18-42.38a5,5,0,0,1-.52-2.14,4.47,4.47,0,0,1,4.56-4.42,4.72,4.72,0,0,1,4.63,3.24l14.86,37.16,15.08-37.45a4.67,4.67,0,0,1,4.34-3,4.38,4.38,0,0,1,4.49,4.34,5.2,5.2,0,0,1-.44,1.91l-18.1,42.68a5.39,5.39,0,0,1-5.22,3.68h-.52a5.36,5.36,0,0,1-5.13-3.67" transform="translate(-205.39 -565.12)"/><path class="cls-5" d="M657.87,613.73a4.53,4.53,0,0,1,9,0V657a4.53,4.53,0,0,1-9,0Z" transform="translate(-205.39 -565.12)"/><path class="cls-5" d="M680.67,656.56V614.18a4.49,4.49,0,0,1,4.56-4.56h29.95a4.05,4.05,0,0,1,0,8.1H689.72v13.39h22.15a4.1,4.1,0,0,1,4,4.12,4,4,0,0,1-4,4H689.72V653h25.83a4.08,4.08,0,0,1,4.05,4.05,4,4,0,0,1-4.05,4H685.23a4.5,4.5,0,0,1-4.56-4.56M696,603.73a7.38,7.38,0,0,1-5.44,2c-1.1,0-2-.51-2-1.47a3.56,3.56,0,0,1,.88-1.76l4.86-6.11a5,5,0,0,1,4.27-2.14h2.65a4.91,4.91,0,0,1,4.27,2.14l4.85,6.11a3.64,3.64,0,0,1,.88,1.76c0,1-1,1.47-2.13,1.47a7.47,7.47,0,0,1-5.44-2l-3.83-3.31Z" transform="translate(-205.39 -565.12)"/><path class="cls-5" d="M730,613.88a4.55,4.55,0,0,1,4.56-4.57h1c2.21,0,3.46,1.1,4.71,2.65l25.75,33.33V613.65a4.45,4.45,0,0,1,8.9,0v43.26a4.4,4.4,0,0,1-4.42,4.49h-.37c-2.13,0-3.46-1.1-4.71-2.72L738.85,624.4v32.67a4.45,4.45,0,0,1-8.9,0V613.88Z" transform="translate(-205.39 -565.12)"/><path class="cls-5" d="M822.8,618H810.3a4.2,4.2,0,0,1,0-8.39h34.21a4.2,4.2,0,0,1,0,8.39H831.93v39a4.56,4.56,0,0,1-9.12,0V618Z" transform="translate(-205.39 -565.12)"/><path class="cls-5" d="M857.82,613.73a4.53,4.53,0,0,1,9,0V631h24.58v-17.3a4.53,4.53,0,0,1,9,0V657a4.53,4.53,0,0,1-9,0V639.42H866.87V657a4.53,4.53,0,0,1-9,0Z" transform="translate(-205.39 -565.12)"/><path class="cls-5" d="M910.79,655.23l19.13-42.68a5.74,5.74,0,0,1,5.44-3.68h.44a5.64,5.64,0,0,1,5.37,3.68l19.13,42.68a3.93,3.93,0,0,1,.52,1.91,4.24,4.24,0,0,1-4.27,4.34,4.68,4.68,0,0,1-4.42-3.17l-4.19-9.64h-25l-4.34,9.93a4.35,4.35,0,0,1-4.19,2.87,4.16,4.16,0,0,1-4.2-4.2,4.79,4.79,0,0,1,.6-2M931.54,603a7.39,7.39,0,0,1-5.45,2c-1.1,0-2-.52-2-1.47a3.56,3.56,0,0,1,.88-1.76l4.86-6.11a5,5,0,0,1,4.27-2.14h2.65a4.91,4.91,0,0,1,4.27,2.14l4.85,6.11a3.64,3.64,0,0,1,.88,1.76c0,1-1,1.47-2.13,1.47a7.49,7.49,0,0,1-5.44-2l-3.83-3.31Zm13,37.67-9-20.82-9.05,20.82Z" transform="translate(-205.39 -565.12)"/><path class="cls-5" d="M970.6,613.88a4.55,4.55,0,0,1,4.56-4.57h1a4.75,4.75,0,0,1,4.19,2.43l15.6,24.43,15.67-24.5a4.55,4.55,0,0,1,4.12-2.36h1a4.53,4.53,0,0,1,4.56,4.57V657a4.48,4.48,0,0,1-4.56,4.49,4.56,4.56,0,0,1-4.49-4.49V626.1L999.59,645a4.22,4.22,0,0,1-7.58,0L979.5,626.23v30.84a4.39,4.39,0,0,1-4.49,4.41,4.34,4.34,0,0,1-4.42-4.41V613.88Z" transform="translate(-205.39 -565.12)"/><path class="cls-5" d="M1056.53,613.88a4.54,4.54,0,0,1,4.56-4.57h1a4.75,4.75,0,0,1,4.19,2.43l15.6,24.43,15.67-24.5a4.55,4.55,0,0,1,4.12-2.36h1a4.53,4.53,0,0,1,4.56,4.57V657a4.48,4.48,0,0,1-4.56,4.49,4.56,4.56,0,0,1-4.49-4.49V626.1L1085.52,645a4.22,4.22,0,0,1-7.58,0l-12.51-18.77v30.84a4.39,4.39,0,0,1-4.49,4.41,4.32,4.32,0,0,1-4.41-4.41Z" transform="translate(-205.39 -565.12)"/><path class="cls-5" d="M1134.88,641.1l-17.73-24.35a5.57,5.57,0,0,1-1-3.16,4.4,4.4,0,0,1,4.56-4.34c2,0,3.31,1.1,4.42,2.72l14.35,20.67L1154,611.89c1.1-1.62,2.43-2.72,4.34-2.72a4.3,4.3,0,0,1,4.42,4.41,5.48,5.48,0,0,1-1.25,3.23l-17.59,24.06V657a4.53,4.53,0,0,1-9,0V641.1Z" transform="translate(-205.39 -565.12)"/><path class="cls-5" d="M951.34,583.76A11.49,11.49,0,0,0,943.1,587a2.71,2.71,0,1,0,3.57,4.09,6.5,6.5,0,0,1,4.56-1.85c2.19,0,3.56,1.08,3.56,2.9s-1.6,3-4.77,3.3a2.21,2.21,0,0,0-2,2.59l.37,3.17a2.25,2.25,0,0,0,2.24,2.06h.22a2.35,2.35,0,0,0,2.25-2.08l.1-1.19c4.9-1,7.48-3.74,7.48-8.07,0-4.87-3.74-8.14-9.31-8.14" transform="translate(-205.39 -565.12)"/><path class="cls-5" d="M1128.74,603.72a2.67,2.67,0,0,1-2.72-2.5,4.45,4.45,0,0,1,.29-1.62c1.54-4.27,3.53-6.69,7.5-6.69s8,2.87,10.52,2.87c1.77,0,2.57-.66,3.46-2.28a2.66,2.66,0,0,1,5.07,1,4.9,4.9,0,0,1-.29,1.7c-1.55,4.26-3.53,6.7-7.51,6.7s-8-3-10.52-3c-1.76,0-2.57.74-3.46,2.36a2.64,2.64,0,0,1-2.34,1.46" transform="translate(-205.39 -565.12)"/><path class="cls-5" d="M437.53,666.06a4.56,4.56,0,0,1,4.68,4.62v.67a4.72,4.72,0,0,1-9.43,0v-.67a4.58,4.58,0,0,1,4.75-4.62" transform="translate(-205.39 -565.12)"/><path class="cls-5" d="M700.17,666.06a4.56,4.56,0,0,1,4.68,4.62v.67a4.72,4.72,0,0,1-9.43,0v-.67a4.58,4.58,0,0,1,4.75-4.62" transform="translate(-205.39 -565.12)"/></svg>