<svg id="Layer_1" data-name="Layer 1" xmlns="http://www.w3.org/2000/svg" viewBox="0 0 1355.78 578.43"><defs><style>.cls-1{fill:#d2342e;}.cls-2{fill:#f69679;}.cls-3{fill:#f26649;}.cls-4{fill:#b72c26;}.cls-5{fill:#00597d;}.cls-6{isolation:isolate;font-size:117.71px;fill:#333;font-family:SanFranciscoDisplay-Medium, San Francisco Display;font-weight:500;}</style></defs><title>logosb</title><path class="cls-1" d="M1205.84,133c34.48-25.86,55-12.24,70.77.84,44.14,36.62,64.93,19.31,75,4.31,14-20.76-11.62-37-11.62-37,19.85-51.32-52.6-54.54-52.6-54.54-56.41-2.92-101.17,39.22-101.17,39.22.08-13.09,26-33.4,26-33.4,36.77-30.24,20-45.18,7.64-50-37-14.39-56.74,41.41-56.74,41.41-6.33,13.77-7.6,30.44-6.38,46.91,32.89,9.87,43.09,27.48,49.14,42.26" transform="translate(-0.01 -0.01)"/><path class="cls-2" d="M1137.53,281c-3-8.28-9.14-19.43-14.7-31.43h0c-8.35-17.3-5.44-37.18-4.36-48.44a.57.57,0,0,1,.06-.31,20,20,0,0,0,0-5.89v-.12h0c-.46-3.21-1.8-6.75-5.49-8.66l-1-.46a11.63,11.63,0,0,0-3.64-1.15c-9.52-1.09-13.69,12.51-16.27,18-13.24,28.08-61.22,44.36-61.22,44.36-14.12,5.84-31.73,19.29-23.4,56,0,0,1.08,22.93,29,38.32a60.46,60.46,0,0,0,51,6.6c4.94-1.58,10.8-5.42,14.25-15.26,0,0,55.36,2.15,35.64-51.51" transform="translate(-0.01 -0.01)"/><path class="cls-3" d="M1347,256.89h0c.45-10.75-11.42-15.1-18.6-18.11-17.67-7.4-17.32-29.86-22.36-40.77-26-56.35-85.14-41.53-98.13-37.48-2.77,13.91-9,25.43-.72,33.43q5.32,6.89,10.63,13.78c3.65,3.89,5.33,8.24.39,11-4.77,2.86-11.38,4-4.73,12.21,2.71,3,5.47,5.51,3,7.68-2.49,1.87-5,3.73-7.48,5.61,3.46,2.84,6.42,5.78,3.54,9.93-3.52,4.61-8.88,7.55-5.21,17.61,2.58,10.89-6.26,15.35-18.7,13.18-14-3.62-27.69-6.82-34.83-1.18,14.09,13.82,17.48,26.9,13.7,39.48h.08c56.59,54.78,93.34,9.92,93.34,9.92,66,17.3,56.23-39.5,56.23-39.5s29.76-8.28,29.83-36.81" transform="translate(-0.01 -0.01)"/><path class="cls-4" d="M1050,50.89c16.36,6,20.49.09,25.66-6.4,6.7-8.41,8.92-29.84,33.45-23.77,21.82,5.4,29,47.88,26.68,82.11h0l-.08,1.06c-.25,3.42-.59,6.74-1,9.91-2.18,17.53-9,51.24-22.12,51.24-6.47,0-10.68-12-12.72-16.94C1076.88,92.94,1049,92,1026,83.45c-20-7.42-6.14-27.43-7.32-25.7,0,0,7.76-15.51,31.31-6.87" transform="translate(-0.01 -0.01)"/><path class="cls-5" d="M251.47,288.79q3,10.2-3.53,12.21c-4.35,1.33-8.25,1.89-11.33.67-3.74-1.48-7-4.54-10.41-8h-.66q-11.47,6.15-29.62,7.48-32.41,0-43.89-19.48-6.41-12.14-6.41-19.61,0-28.55,24.55-36.55,9.74-3.73,16.82-3.74h3.2q20.53,0,31.88,6h.53a161.11,161.11,0,0,0,1.21-19.88q0-11.22-2-11.21c-2-.88-4.36-.36-7.33.14a10,10,0,0,1-1.34,0q-4.8,0-29.21,7.6l-2.4.27q-13.22,0-21.08-9.07a39,39,0,0,1-6.94-18.55c0-3.65,1.56-5.48,4.67-5.47q8,1.34,26.81,5.47,20.53,3.74,27.08,5.07,15.35.93,23.08,6.94,15.75,11.47,15.75,35.75v12.54q-2.43,41.2.57,51.42M169,265.51q1.47,11.61,15.61,13a29.94,29.94,0,0,0,8,.93h2.15q17.47,0,23.62-11.74a15.45,15.45,0,0,0,1.2-6.54q0-14.4-17.35-18.81a40.76,40.76,0,0,0-9.73-.93c-13.7,1.51-20.17,7.33-23.49,16.28-.64,1.71-.89,4.22,0,7.86" transform="translate(-0.01 -0.01)"/><path class="cls-5" d="M283.61,167.31q9.48,0,27.08,16.28a24.11,24.11,0,0,0,9.61,2.13h11.47q36.15,0,49.49,30.82,3.87,11.21,3.87,49.36,0,27.21-12.8,35a11,11,0,0,1-5.2,1.34h-.81q-10.67,0-13.21-16.82v-5.07l.27-3.46-.27-.14.27-3.6v-2.93l.26-13.07c-1.78-28.1-1.77-44.84-3.6-49.22a11.08,11.08,0,0,0-10.14-7.2h-2.8q-17.21,2-21.48,2l-5.86-.39A228.31,228.31,0,0,0,308,231.68v2.93l.27,3.34-.27.4.27,3.6q0,16.55,3.07,43.76,0,12.27-8.41,15.2a13.34,13.34,0,0,1-4.54.94H296q-11.47,0-15.48-11.34a32.57,32.57,0,0,1-1.2-8.67l1.2-12.54-.27-.4v-.26q2.4-15.88,2.41-39.63V227.4q0-29.21-5.34-44.42l-.66-6.28q.79-8.94,6.54-8.93Z" transform="translate(-0.01 -0.01)"/><path class="cls-5" d="M451.84,153c6,0,17.3.47,28.41,9.87a6,6,0,0,1,2.26,4.54v.27l-2.26,10A59.57,59.57,0,0,1,498.93,187q22.94,16.68,22.94,43.5v2.13q0,30.15-24.28,39.76a57.18,57.18,0,0,1-20.81,4.26l-2.54,6.27c0,.44,1.64,1,4.94,1.74a84.45,84.45,0,0,1,18.94,6.79q28.68,17.61,28.68,42.43-1.32,39.89-32.28,45.89a89.21,89.21,0,0,1-22.28,3.08v.39l-.26-.39h-.26l-1.6.39q-40.69,0-59.37-27.48-6-12.54-6-29.09,0-16.28,20.69-32.29a61.41,61.41,0,0,1,26.41-10.14c2.48-6.93,2.85-10.41,1.07-10.41q-21-5.33-32.16-18.67-10.53-14-10.54-30,0-23.61,19.75-38.82,14-8.69,26.68-8.67.27-7.47-7.21-13.74a8.72,8.72,0,0,1-3.46-6.8c0-2.75,2-4.14,5.88-4.14M430.1,326.31v2q0,23.47,20.95,30.15a53.82,53.82,0,0,0,11.6,1.2q27.5,0,35.76-17.07c2-6.23,2.44-10.63,1.47-13.21v-2.67q0-12.29-20.95-21.35a40.51,40.51,0,0,0-13.34-2q-25.33,0-34.42,15.74a28.84,28.84,0,0,0-1.07,7.21m2.81-101.65q0,17.09,19.48,23a58.48,58.48,0,0,0,13.33,1.23h1.6q22.8,0,30.15-13.75a25.15,25.15,0,0,0,1.61-8q0-16.41-20.55-23.88a33.31,33.31,0,0,0-11.21-1.6h-4.26q-20.55,0-29.1,16.68a29.06,29.06,0,0,0-1.06,6.27" transform="translate(-0.01 -0.01)"/><path class="cls-5" d="M552.12,167.31q9.46,0,27.08,16.28a24.11,24.11,0,0,0,9.61,2.13h11.47q36.15,0,49.49,30.82,3.87,11.21,3.87,49.36,0,27.21-12.8,35a11,11,0,0,1-5.2,1.34h-.81q-10.67,0-13.2-16.82v-5.07l.27-3.46-.27-.14.27-3.6v-2.93l.26-13.07c-1.77-28.1-1.77-44.84-3.59-49.22a11.08,11.08,0,0,0-10.15-7.2h-2.8q-17.21,2-21.48,2l-5.87-.39a226.52,226.52,0,0,0-1.73,29.34v2.93l.27,3.34-.27.4.27,3.6q0,16.55,3.07,43.76,0,12.27-8.41,15.2a13.52,13.52,0,0,1-4.53.94h-2.41q-11.47,0-15.48-11.34a33.4,33.4,0,0,1-1.2-8.67l1.2-12.54-.26-.4v-.26q2.4-15.88,2.39-39.63V227.4q0-29.21-5.33-44.42l-.67-6.28q.8-8.94,6.54-8.93Z" transform="translate(-0.01 -0.01)"/><path class="cls-5" d="M779.63,289.89q3,10.2-3.53,12.21c-4.36,1.33-8.26,1.89-11.35.67-3.74-1.48-7-4.54-10.4-8h-.63q-11.46,6.15-29.61,7.48-32.42,0-43.89-19.48-6.4-12.13-6.41-19.61,0-28.55,24.55-36.55c6.5-2.49,12.09-3.74,16.81-3.74h3.2q20.55,0,31.89,6h.53A161.1,161.1,0,0,0,752,209q0-11.22-2-11.21c-2-.88-4.37-.36-7.34.14a9.69,9.69,0,0,1-1.32,0q-4.82,0-29.22,7.6l-2.41.27q-13.2,0-21.08-9.07a39.17,39.17,0,0,1-6.93-18.55q0-5.47,4.66-5.47,8,1.34,26.82,5.47c13.69,2.49,22.67,4.49,27.08,5.07,10.15,1.33,17.91,2.94,23.08,6.94q15.74,11.48,15.73,35.75v12.54q-2.4,41.21.61,51.42m-82.51-23.28q1.47,11.61,15.6,13a29.94,29.94,0,0,0,8,.93h2.13q17.48,0,23.61-11.74a15.13,15.13,0,0,0,1.21-6.54q0-14.4-17.34-18.81a40.9,40.9,0,0,0-9.74-.93q-20.55,2.26-23.47,16.28-1.36,2.4,0,7.86" transform="translate(-0.01 -0.01)"/><path class="cls-5" d="M952.19,224.07c-2.49-22.15-13.27-31.69-45-32.4a90.1,90.1,0,0,0-29.57,4.17q-12.27-5.43-36.33-6.19a96.84,96.84,0,0,0-9.57-4.76q-17.61-13.6-25.75-13.61l-.4.4q-5.73,0-6.54,8.93l.69,6.28q5.34,12.54,5.34,44.42v1.58q0,23.75-2.41,39.63v.26l.27.4-1.2,12.54a33,33,0,0,0,1.2,8.67q4,11.33,14.14,11.34h2.4a13.11,13.11,0,0,0,4.54-.94q8.4-2.93,8.4-15.2-3.06-27.22-3.06-43.76l-.27-3.6.27-.4-.27-3.34v-2.93q-1.32-21.34,7.61-26.28,9.62-4,18.41-.66,6.4,3.07,6.28,24.15l-.27,37.35v2.94l-.26,3.6.26.14-.26,3.47v5.06q5.2,16.82,13.21,16.81h.79a11,11,0,0,0,4.45-1q7.44-.84,12.37-16.76v-3.73a81.69,81.69,0,0,0,1.2-14.81q-.5-25.66-1.37-40.6c.24-7.23.6-11.47,1.07-12.76h.94a1.24,1.24,0,0,0,1,0,153.85,153.85,0,0,1,16.91,0q11.21.87,11.55,9.47t.33,40.09l-.4,12.93v2.92s-.57,2.76-.26,3.6c0,.09.23.18.26.27.28.79-.23,2.5-.26,3.33a34.72,34.72,0,0,0,0,5.2c1.8,11.53,8,16.67,13.21,16.67h.93a12.53,12.53,0,0,0,5.21-1.2q12.79-7.87,15.48-32.42c-.92-24.46-4.26-40.53-5.23-49.22" transform="translate(-0.01 -0.01)"/><path class="cls-5" d="M116.54,288.24c1.38,1.91,8.5,11.67,25.51,28,5.7,4.69,8.56,8.14,8.56,10.4q0,5.34-11.76,6.26-10.23,0-40-8.86-6.1-4.14-9.32-16-9.32-24.6-31.92-52.4c-2.55-2.55-4.19-3.82-4.89-3.82q-4.89,4.89-4.9,7.8c0,16.8-3.4,40.63-14.41,70.78-3.77,12.23-8.86,19-11.1,20.89,0,0-6.58,1-6-17.11V259.39h0c-.39-12.38-.58-27-.58-44.07l-.45-8.56.45-.3L15.28,202v-18L15,179.94l.31-.46L15,174V159.77l-.45-7,.45-.32-.45-5.65V135.17Q16,117.91,0,98.36V97.29q2.42-6.41,12.71-6.4,19.55,0,33,20.93c2.75,3,4.12,5.55,4.12,7.79v.77L48.62,136V238.47h.77q26.73-28.58,33.45-40.33,15.12-26,19.86-30.86a12.67,12.67,0,0,1,8.55-3.36q11.46,0,17.87,18.17l.46,5.65v.77q0,19.26-28.41,30.86-12.54,6.12-19.26,12.39v.3Z" transform="translate(-0.01 -0.01)"/><path class="cls-3" d="M159.52,49.06a4.49,4.49,0,0,1,4.42-4.56h18.68c5.89,0,10.52,1.62,13.46,4.56a11.55,11.55,0,0,1,3.46,8.54v.14c0,6.18-3.53,9.49-7.36,11.48,6,2.06,10.23,5.51,10.23,12.51v.16c0,9.2-7.58,14.13-19.06,14.13H164.07a4.48,4.48,0,0,1-4.56-4.4V49.06ZM180.78,66.2c5.81,0,9.71-2.29,9.71-7v-.14c0-4-3.24-6.55-9-6.55h-13V66.2ZM183.43,88c6.18,0,9.93-2.42,9.93-7.06v-.15c0-4.34-3.46-6.92-10.59-6.92H168.42V88Z" transform="translate(-0.01 -0.01)"/><path class="cls-3" d="M212.64,91.44V49.06a4.49,4.49,0,0,1,4.42-4.56h30.09a4.08,4.08,0,0,1,4,4,4,4,0,0,1-3.95,4H221.72V66h22.15a4.1,4.1,0,0,1,4,4.12,4,4,0,0,1-4,4H221.72V87.89h25.8a4.08,4.08,0,0,1,4,4,4,4,0,0,1-4,4H217.2a4.49,4.49,0,0,1-4.56-4.42v-.14m15.3-52.83a7.4,7.4,0,0,1-5.44,2c-1.1,0-2-.52-2-1.47a3.55,3.55,0,0,1,.88-1.76l4.86-6.11a5,5,0,0,1,4.27-2.14h2.65a4.93,4.93,0,0,1,4.27,2.14l4.86,6.11a3.63,3.63,0,0,1,.88,1.76c0,1-1,1.47-2.13,1.47a7.49,7.49,0,0,1-5.44-2l-3.83-3.31Z" transform="translate(-0.01 -0.01)"/><path class="cls-3" d="M261.93,48.76a4.53,4.53,0,0,1,4.5-4.56h1.06c2.21,0,3.46,1.1,4.71,2.65L298,80.18V48.54a4.45,4.45,0,0,1,8.9,0V91.8a4.4,4.4,0,0,1-4.31,4.49h-.48c-2.13,0-3.46-1.1-4.71-2.72L270.82,59.29V92a4.46,4.46,0,0,1-8.91,0V48.76Z" transform="translate(-0.01 -0.01)"/><path class="cls-3" d="M320.05,48.61a4.53,4.53,0,0,1,9,0V65.89h24.67V48.61a4.53,4.53,0,0,1,9,0V91.89a4.53,4.53,0,0,1-9,0V74.29H329.1v17.6a4.53,4.53,0,0,1-9,0Z" transform="translate(-0.01 -0.01)"/><path class="cls-3" d="M413,93.06,395,50.68a5,5,0,0,1-.52-2.14A4.46,4.46,0,0,1,399,44.13H399a4.71,4.71,0,0,1,4.63,3.24L418.5,84.53l15.08-37.45a4.67,4.67,0,0,1,4.34-3,4.38,4.38,0,0,1,4.49,4.27v.07a5,5,0,0,1-.44,1.91L423.87,93a5.38,5.38,0,0,1-5.22,3.68h-.52A5.32,5.32,0,0,1,413,93" transform="translate(-0.01 -0.01)"/><path class="cls-3" d="M452.47,48.61a4.53,4.53,0,0,1,9,0V91.89a4.53,4.53,0,0,1-9,0Z" transform="translate(-0.01 -0.01)"/><path class="cls-3" d="M475.27,91.44V49.06a4.49,4.49,0,0,1,4.42-4.56h30.09a4.05,4.05,0,0,1,0,8.1H484.32V66h22.15a4.1,4.1,0,0,1,4,4.12,4,4,0,0,1-4,4H484.32V87.89h25.83a4.08,4.08,0,0,1,4.05,4,4,4,0,0,1-4,4H479.83a4.49,4.49,0,0,1-4.56-4.44v-.12m15.31-52.83a7.4,7.4,0,0,1-5.44,2c-1.1,0-2-.52-2-1.47a3.55,3.55,0,0,1,.88-1.76l4.86-6.11a5,5,0,0,1,4.27-2.14h2.65a4.93,4.93,0,0,1,4.27,2.14l4.85,6.11a3.63,3.63,0,0,1,.88,1.76c0,1-1,1.47-2.13,1.47a7.49,7.49,0,0,1-5.44-2l-3.83-3.31Z" transform="translate(-0.01 -0.01)"/><path class="cls-3" d="M524.56,48.76a4.54,4.54,0,0,1,4.52-4.56h1c2.21,0,3.46,1.1,4.71,2.65l25.75,33.33V48.54a4.45,4.45,0,0,1,8.9,0V91.8a4.4,4.4,0,0,1-4.31,4.49h-.48c-2.13,0-3.46-1.1-4.71-2.72L533.45,59.29V92a4.45,4.45,0,0,1-8.9,0h0V48.76Z" transform="translate(-0.01 -0.01)"/><path class="cls-3" d="M617.41,52.89H604.9a4.2,4.2,0,0,1,0-8.39h34.21a4.2,4.2,0,0,1,0,8.39H626.53v39a4.56,4.56,0,1,1-9.12,0Z" transform="translate(-0.01 -0.01)"/><path class="cls-3" d="M652.42,48.61a4.53,4.53,0,0,1,9,0V65.89H686V48.61a4.53,4.53,0,0,1,9,0V91.89a4.53,4.53,0,0,1-9,0V74.29H661.47v17.6a4.53,4.53,0,0,1-9,0Z" transform="translate(-0.01 -0.01)"/><path class="cls-3" d="M705.4,90.11l19.13-42.68A5.73,5.73,0,0,1,730,43.75h.44a5.65,5.65,0,0,1,5.37,3.68l19.13,42.68a4,4,0,0,1,.52,1.91,4.24,4.24,0,0,1-4.14,4.34h-.13a4.68,4.68,0,0,1-4.42-3.17l-4.19-9.64h-25l-4.34,9.93A4.35,4.35,0,0,1,709,96.35a4.16,4.16,0,0,1-4.2-4.12v-.08a4.84,4.84,0,0,1,.6-2m20.72-52.26a7.43,7.43,0,0,1-5.45,2c-1.1,0-2-.52-2-1.47a3.55,3.55,0,0,1,.88-1.76l4.86-6.11a5,5,0,0,1,4.27-2.14h2.65a4.93,4.93,0,0,1,4.27,2.14l4.85,6.11a3.63,3.63,0,0,1,.88,1.76c0,1-1,1.47-2.13,1.47a7.49,7.49,0,0,1-5.44-2L730,34.58Zm13,37.67-9-20.82-9,20.82Z" transform="translate(-0.01 -0.01)"/><path class="cls-3" d="M765.21,48.76a4.54,4.54,0,0,1,4.52-4.56h1A4.75,4.75,0,0,1,775,46.63l15.6,24.43,15.67-24.5a4.54,4.54,0,0,1,4.12-2.36h1a4.53,4.53,0,0,1,4.56,4.5V91.89a4.48,4.48,0,0,1-4.47,4.49h-.09a4.57,4.57,0,0,1-4.49-4.49V61L794.2,79.89a4.22,4.22,0,0,1-7.58,0L774.11,61.13V92a4.39,4.39,0,0,1-4.37,4.41h-.12a4.34,4.34,0,0,1-4.42-4.26V48.76Z" transform="translate(-0.01 -0.01)"/><path class="cls-3" d="M851.13,48.76a4.53,4.53,0,0,1,4.5-4.56h1.06a4.75,4.75,0,0,1,4.19,2.43l15.6,24.43,15.67-24.5a4.54,4.54,0,0,1,4.12-2.36h1a4.53,4.53,0,0,1,4.56,4.5V91.89a4.48,4.48,0,0,1-4.47,4.49h-.09a4.56,4.56,0,0,1-4.55-4.49V61l-12.6,18.9a4.22,4.22,0,0,1-7.58,0L860,61.13V92a4.39,4.39,0,0,1-4.37,4.41h-.12a4.32,4.32,0,0,1-4.41-4.23V48.76Z" transform="translate(-0.01 -0.01)"/><path class="cls-3" d="M929.48,76,911.72,51.64a5.59,5.59,0,0,1-1-3.16,4.4,4.4,0,0,1,4.46-4.34h.1c2,0,3.31,1.1,4.42,2.72l14.35,20.67,14.57-20.74c1.1-1.62,2.43-2.72,4.34-2.72a4.3,4.3,0,0,1,4.42,4.18v.23a5.54,5.54,0,0,1-1.25,3.23L938.54,75.77V91.89a4.53,4.53,0,0,1-9,0V76Z" transform="translate(-0.01 -0.01)"/><path class="cls-3" d="M745.94,18.64a11.47,11.47,0,0,0-8.22,3.25A2.71,2.71,0,1,0,741.29,26h0a6.53,6.53,0,0,1,4.56-1.85c2.19,0,3.56,1.08,3.56,2.9s-1.6,3-4.77,3.3a2.22,2.22,0,0,0-2,2.38l0,.21.37,3.17a2.25,2.25,0,0,0,2.24,2.06h.22a2.35,2.35,0,0,0,2.25-2.08l.1-1.19c4.9-1,7.48-3.74,7.48-8.07,0-4.87-3.73-8.14-9.31-8.14" transform="translate(-0.01 -0.01)"/><path class="cls-3" d="M923.34,38.6a2.67,2.67,0,0,1-2.72-2.5,4.5,4.5,0,0,1,.29-1.62c1.54-4.27,3.53-6.69,7.5-6.69s8,2.87,10.52,2.87c1.77,0,2.57-.66,3.46-2.28a2.66,2.66,0,0,1,5.07,1,4.68,4.68,0,0,1-.29,1.7c-1.55,4.26-3.53,6.7-7.51,6.7s-8-3-10.52-3c-1.76,0-2.57.74-3.46,2.36a2.64,2.64,0,0,1-2.34,1.46" transform="translate(-0.01 -0.01)"/><path class="cls-3" d="M232.13,101a4.56,4.56,0,0,1,4.68,4.44v.85a4.72,4.72,0,0,1-9.43,0v-.67a4.58,4.58,0,0,1,4.54-4.62h.21" transform="translate(-0.01 -0.01)"/><path class="cls-3" d="M494.77,101a4.56,4.56,0,0,1,4.68,4.44v.85a4.72,4.72,0,0,1-9.43,0v-.67a4.58,4.58,0,0,1,4.54-4.62h.21" transform="translate(-0.01 -0.01)"/><text class="cls-6" transform="translate(13.4 550.32)">ĐẸP CHUẨN HÀN QUỐC</text></svg>