<svg width="78" height="78" viewBox="0 0 78 78" fill="none" xmlns="http://www.w3.org/2000/svg">
<path d="M17.5079 13.1827C17.5079 12.4051 17.5024 11.6921 17.5086 10.98C17.5297 8.60022 19.4274 6.71652 21.8033 6.7134C24.1901 6.71028 26.1027 8.58072 26.1292 10.9488C26.137 11.6641 26.1308 12.3801 26.1308 13.139C29.0144 13.139 31.8528 13.139 34.7654 13.139C34.7654 12.4136 34.7607 11.7023 34.7661 10.9901C34.7856 8.60568 36.6779 6.71886 39.0507 6.7134C41.4687 6.70794 43.368 8.58618 43.3867 11.0065C43.3922 11.7007 43.3875 12.3941 43.3875 13.1359C46.2633 13.1359 49.1018 13.1359 52.0213 13.1359C52.0213 12.423 52.0166 11.7116 52.0221 11.0003C52.0408 8.58462 53.9456 6.70638 56.3643 6.7134C58.7355 6.72042 60.6231 8.60802 60.6434 10.9964C60.6497 11.6914 60.6442 12.3863 60.6442 13.1827C60.8876 13.1827 61.1005 13.1827 61.3142 13.1827C62.9093 13.1827 64.5052 13.1741 66.1003 13.1851C69.0378 13.2046 71.4222 15.5648 71.4254 18.4976C71.4363 27.7984 71.43 37.0983 71.4285 46.399C71.4285 47.2141 71.0471 47.6696 70.3771 47.6829C69.679 47.6969 69.2796 47.2297 69.2788 46.3795C69.2765 40.6512 69.278 34.9221 69.278 29.1938C69.278 28.9247 69.278 28.6556 69.278 28.3303C49.1618 28.3303 29.0667 28.3303 8.87404 28.3303C8.87404 28.5456 8.87404 28.7819 8.87404 29.0191C8.87404 39.7799 8.87326 50.5408 8.87482 61.3017C8.87482 63.6089 10.2039 64.9427 12.5065 64.9427C22.2581 64.9443 32.0096 64.9435 41.762 64.9435C41.9866 64.9435 42.2136 64.9279 42.4359 64.9521C42.9873 65.0114 43.3734 65.4443 43.3859 65.9926C43.3984 66.5683 43.0022 67.0261 42.4218 67.0885C42.244 67.108 42.063 67.0955 41.8829 67.0955C32.0416 67.0955 22.1996 67.0971 12.3583 67.0948C9.01522 67.094 6.72358 64.8109 6.72358 61.4795C6.72202 47.2594 6.72202 33.0392 6.72358 18.8182C6.72358 15.4744 9.00586 13.1874 12.3388 13.1835C14.0392 13.1819 15.7404 13.1827 17.5079 13.1827ZM26.1308 15.3605C26.1308 16.121 26.1354 16.8144 26.13 17.5078C26.1113 19.9274 24.212 21.8087 21.7979 21.8041C19.4259 21.7994 17.5289 19.9126 17.5086 17.5336C17.5024 16.8214 17.5079 16.1085 17.5079 15.4252C17.4002 15.3792 17.3612 15.348 17.3222 15.348C15.6382 15.3418 13.9534 15.3262 12.2694 15.3379C10.2726 15.3527 8.89276 16.7372 8.87716 18.7387C8.8639 20.4679 8.87404 22.1972 8.87404 23.9264C8.87404 24.6386 8.87404 25.3507 8.87404 26.0894C29.0339 26.0894 49.1236 26.0894 69.2203 26.0894C69.2429 25.9966 69.2718 25.9349 69.2718 25.8725C69.2741 23.4249 69.3038 20.9765 69.2632 18.5296C69.2359 16.869 68.0722 15.5102 66.4092 15.3956C64.5161 15.2653 62.6075 15.3652 60.6442 15.3652C60.6442 16.0718 60.6465 16.7403 60.6434 17.4088C60.6325 19.9024 58.7738 21.8025 56.3441 21.8048C53.9073 21.808 52.033 19.9126 52.0213 17.4322C52.0182 16.7458 52.0205 16.0594 52.0205 15.3878C49.0893 15.3878 46.2509 15.3878 43.3867 15.3878C43.3867 16.1358 43.3922 16.8308 43.3859 17.5258C43.3656 19.9102 41.4749 21.7978 39.1045 21.8048C36.6896 21.8119 34.7833 19.9305 34.7654 17.5172C34.7599 16.8066 34.7646 16.096 34.7646 15.3613C31.8614 15.3605 29.0394 15.3605 26.1308 15.3605ZM19.6599 14.2264C19.6599 15.2349 19.6544 16.2434 19.6614 17.2512C19.67 18.6536 20.592 19.6637 21.8392 19.6481C23.0708 19.6333 23.9709 18.649 23.9772 17.2801C23.9865 15.263 23.9865 13.2467 23.9772 11.2296C23.9709 9.8646 23.063 8.87712 21.833 8.86776C20.6006 8.8584 19.677 9.84354 19.663 11.2007C19.6513 12.2101 19.6599 13.2186 19.6599 14.2264ZM41.2355 14.2911C41.2355 13.2826 41.2409 12.274 41.2339 11.2663C41.2238 9.86148 40.3049 8.8545 39.0569 8.86854C37.8206 8.88258 36.9252 9.86148 36.9189 11.2335C36.9104 13.2506 36.9104 15.2669 36.9189 17.284C36.9244 18.6482 37.83 19.6372 39.06 19.6497C40.2862 19.6622 41.2183 18.6692 41.2339 17.3167C41.244 16.3082 41.2355 15.2996 41.2355 14.2911ZM54.1733 14.2279C54.1733 15.2365 54.1679 16.245 54.1749 17.2528C54.1842 18.6544 55.107 19.6645 56.3542 19.6481C57.5866 19.6318 58.4844 18.6482 58.4906 17.2785C58.5 15.2614 58.5 13.2451 58.4906 11.228C58.4844 9.86382 57.5741 8.87634 56.3448 8.86776C55.1124 8.85918 54.1905 9.84432 54.1764 11.2023C54.1647 12.2116 54.1733 13.2202 54.1733 14.2279Z" fill="white"/>
<path d="M43.393 57.341C43.3828 49.6346 49.6595 43.3884 57.4259 43.3775C65.1175 43.3658 71.4223 49.6377 71.4293 57.3067C71.4363 65.0911 65.2181 71.4005 57.532 71.4075C49.6408 71.4146 43.4039 65.2089 43.393 57.341ZM57.3651 69.2555C63.7736 69.3242 69.1907 64.0007 69.2734 57.5547C69.3568 51.0386 64.0396 45.581 57.557 45.531C51.0058 45.4803 45.6331 50.7305 45.5504 57.263C45.4678 63.7947 50.778 69.1853 57.3651 69.2555Z" fill="white"/>
<path d="M19.7013 33.6717C20.4204 33.6717 21.1396 33.6608 21.858 33.674C23.035 33.6959 23.9499 34.5937 23.9686 35.7644C23.9866 36.8876 23.9874 38.0108 23.9679 39.134C23.9484 40.2736 23.0459 41.1917 21.9125 41.2081C20.4071 41.2299 18.9017 41.2315 17.3963 41.2073C16.2708 41.1893 15.3715 40.2588 15.3543 39.1192C15.3372 38.0186 15.3403 36.9181 15.3527 35.8175C15.3668 34.5944 16.2607 33.6943 17.4767 33.674C18.2185 33.6616 18.9595 33.6717 19.7013 33.6717ZM17.5399 35.8549C17.5399 36.9586 17.5399 37.9828 17.5399 39.0202C18.9774 39.0202 20.3767 39.0202 21.7714 39.0202C21.7714 37.936 21.7714 36.8954 21.7714 35.8549C20.3385 35.8549 18.9548 35.8549 17.5399 35.8549Z" fill="white"/>
<path d="M32.5697 41.2146C31.8731 41.2146 31.1766 41.2216 30.4801 41.213C29.2157 41.1982 28.3093 40.3082 28.2953 39.0579C28.2836 37.9799 28.2836 36.9012 28.2953 35.8232C28.3093 34.5713 29.2126 33.6821 30.4808 33.6735C31.8965 33.6642 33.3115 33.6642 34.7272 33.6735C35.99 33.6821 36.8987 34.5768 36.9135 35.8255C36.926 36.9035 36.926 37.9822 36.9135 39.0602C36.8987 40.3105 35.9923 41.1982 34.7272 41.213C34.008 41.2216 33.2888 41.2146 32.5697 41.2146ZM34.7116 39.0376C34.7116 37.93 34.7116 36.8895 34.7116 35.8575C33.2756 35.8575 31.8919 35.8575 30.4855 35.8575C30.4855 36.9324 30.4855 37.9721 30.4855 39.0376C31.909 39.0376 33.2927 39.0376 34.7116 39.0376Z" fill="white"/>
<path d="M45.5232 33.6724C46.2649 33.6724 47.0059 33.6607 47.7477 33.6747C48.9232 33.6966 49.8358 34.5975 49.8545 35.769C49.8724 36.8922 49.874 38.0154 49.8537 39.1386C49.8334 40.2759 48.9279 41.1924 47.7945 41.2087C46.2891 41.2298 44.7837 41.2314 43.2783 41.208C42.1832 41.1908 41.2667 40.2743 41.2433 39.1839C41.2183 38.0388 41.2222 36.8922 41.2417 35.7472C41.2612 34.6076 42.1637 33.7059 43.3002 33.6771C44.0396 33.6576 44.7814 33.6724 45.5232 33.6724ZM43.4226 35.8517C43.4226 36.9531 43.4226 37.9764 43.4226 39.0224C44.857 39.0224 46.2564 39.0224 47.6604 39.0224C47.6604 37.9413 47.6604 36.9016 47.6604 35.8517C46.2298 35.8517 44.8461 35.8517 43.4226 35.8517Z" fill="white"/>
<path d="M58.4563 41.2146C57.7598 41.2146 57.0632 41.2216 56.3667 41.213C55.1023 41.1982 54.1944 40.309 54.1803 39.0602C54.1686 37.9822 54.1686 36.9035 54.1803 35.8255C54.1944 34.5729 55.0968 33.6829 56.3636 33.6743C57.7793 33.6642 59.1942 33.6649 60.6099 33.6743C61.8735 33.6829 62.783 34.5768 62.7978 35.8248C62.8103 36.9027 62.8103 37.9815 62.7978 39.0594C62.783 40.3113 61.8782 41.199 60.613 41.2138C59.8946 41.2216 59.1755 41.2146 58.4563 41.2146ZM56.3823 35.8489C56.3823 36.9565 56.3823 37.9971 56.3823 39.029C57.8183 39.029 59.202 39.029 60.6083 39.029C60.6083 37.9542 60.6083 36.9144 60.6083 35.8489C59.1848 35.8489 57.8011 35.8489 56.3823 35.8489Z" fill="white"/>
<path d="M19.6443 50.9191C18.9251 50.9198 18.206 50.9292 17.4876 50.9175C16.2716 50.8972 15.3683 49.9963 15.3535 48.7803C15.3402 47.6797 15.3379 46.5784 15.3543 45.4786C15.3722 44.3031 16.277 43.3944 17.454 43.3811C18.9368 43.3648 20.4196 43.3624 21.9024 43.3827C23.0373 43.3983 23.9475 44.3109 23.9678 45.4466C23.9881 46.5916 23.9912 47.7382 23.9663 48.8833C23.9421 49.9799 23.0326 50.8816 21.9359 50.9136C21.1723 50.9362 20.4079 50.9183 19.6443 50.9191ZM21.7932 45.5784C20.3322 45.5784 18.9329 45.5784 17.5344 45.5784C17.5344 46.6532 17.5344 47.6766 17.5344 48.7296C18.9665 48.7296 20.3658 48.7296 21.7932 48.7296C21.7932 47.668 21.7932 46.6439 21.7932 45.5784Z" fill="white"/>
<path d="M32.5869 50.9191C31.8677 50.9198 31.1485 50.9292 30.4302 50.9175C29.2141 50.8972 28.3109 49.9963 28.2961 48.7803C28.2828 47.6797 28.2805 46.5784 28.2969 45.4786C28.3148 44.3031 29.2196 43.3944 30.3966 43.3811C31.8794 43.3648 33.3622 43.3624 34.845 43.3827C35.9799 43.3983 36.8901 44.3109 36.9104 45.4466C36.9307 46.5916 36.9338 47.7382 36.9088 48.8833C36.8847 49.9799 35.9752 50.8816 34.8785 50.9136C34.1149 50.9362 33.3505 50.9183 32.5869 50.9191ZM34.7358 45.5776C33.2764 45.5776 31.8771 45.5776 30.5011 45.5776C30.5011 46.6681 30.5011 47.7086 30.5011 48.7304C31.941 48.7304 33.3247 48.7304 34.7358 48.7304C34.7358 47.6688 34.7358 46.6447 34.7358 45.5776Z" fill="white"/>
<path d="M19.6896 53.082C20.4087 53.082 21.1279 53.0719 21.8463 53.0844C23.0553 53.1054 23.9562 54.0118 23.971 55.2301C23.9835 56.3081 23.9835 57.3868 23.971 58.4648C23.9569 59.7198 23.0553 60.6129 21.7901 60.6223C20.3744 60.6332 18.9595 60.6324 17.5438 60.6223C16.2513 60.6129 15.3613 59.7097 15.352 58.4071C15.3442 57.351 15.3411 56.2956 15.3528 55.2395C15.3668 53.9837 16.2654 53.0976 17.5321 53.0828C18.2512 53.075 18.9704 53.082 19.6896 53.082ZM21.8073 55.2769C20.3455 55.2769 18.9462 55.2769 17.5524 55.2769C17.5524 56.3619 17.5524 57.4017 17.5524 58.4172C19.0024 58.4172 20.4025 58.4172 21.8073 58.4172C21.8073 57.3533 21.8073 56.3455 21.8073 55.2769Z" fill="white"/>
<path d="M32.6321 53.082C33.3512 53.082 34.0704 53.0719 34.7888 53.0844C35.9978 53.1054 36.8987 54.0118 36.9135 55.2301C36.926 56.3081 36.926 57.3868 36.9135 58.4648C36.8994 59.7198 35.9978 60.6129 34.7326 60.6223C33.3169 60.6332 31.902 60.6324 30.4863 60.6223C29.1938 60.6129 28.3038 59.7097 28.2945 58.4071C28.2867 57.351 28.2836 56.2956 28.2953 55.2395C28.3093 53.9837 29.2079 53.0976 30.4746 53.0828C31.1937 53.075 31.9129 53.082 32.6321 53.082ZM34.7092 58.4476C34.7092 57.3338 34.7092 56.2933 34.7092 55.2699C33.2701 55.2699 31.8864 55.2699 30.4886 55.2699C30.4886 56.3471 30.4886 57.3876 30.4886 58.4476C31.9152 58.4476 33.2982 58.4476 34.7092 58.4476Z" fill="white"/>
<path d="M43.4101 45.5269C43.4101 46.6431 43.4101 47.6703 43.4101 48.7108C43.542 48.7545 43.6707 48.7857 43.7892 48.8395C44.3344 49.0876 44.57 49.5298 44.4351 50.0977C44.3079 50.6335 43.9226 50.9128 43.3509 50.9206C42.2924 50.9346 41.2807 50.0353 41.2472 48.9636C41.209 47.753 41.2105 46.5393 41.2472 45.328C41.2784 44.3023 42.1855 43.4076 43.2167 43.3866C44.7205 43.3554 46.2252 43.3647 47.729 43.3834C48.3624 43.3912 48.782 43.8553 48.7781 44.4583C48.7742 45.0604 48.3522 45.5121 47.7142 45.5199C46.3032 45.5394 44.8914 45.5269 43.4101 45.5269Z" fill="white"/>
<path d="M55.3161 61.3204C55.7131 60.8726 56.036 60.4709 56.3971 60.1075C58.6786 57.815 60.9679 55.5304 63.2557 53.2442C63.3984 53.1015 63.5341 52.9486 63.6925 52.8246C64.1776 52.4432 64.74 52.4713 65.1542 52.8847C65.5684 53.2981 65.6144 53.8706 65.2119 54.3425C64.8484 54.7684 64.4327 55.1498 64.0357 55.5468C61.4632 58.12 58.8908 60.6932 56.316 63.2649C55.4884 64.0917 55.0275 64.0956 54.217 63.2875C52.8497 61.9233 51.4831 60.5575 50.1205 59.1894C49.5097 58.5763 49.4388 57.9765 49.9044 57.482C50.388 56.968 51.0292 57.0241 51.661 57.6536C52.8372 58.8251 54.0064 60.0053 55.3161 61.3204Z" fill="white"/>
</svg>
