<svg width="78" height="78" viewBox="0 0 78 78" fill="none" xmlns="http://www.w3.org/2000/svg">
<path d="M67.1559 61.0054C67.1559 61.0054 63.3903 64.704 62.4675 65.7883C60.9642 67.3925 59.193 68.15 56.8711 68.15C56.6478 68.15 56.4097 68.15 56.1864 68.1352C51.7659 67.8529 47.6579 66.1299 44.5769 64.6594C36.1525 60.5895 28.7552 54.8115 22.6081 47.4886C17.5326 41.3838 14.1391 35.7394 11.8916 29.6792C10.5074 25.9806 10.0013 23.099 10.2246 20.3808C10.3734 18.6429 11.0432 17.2021 12.2786 15.9693L17.354 10.9042C18.0833 10.2209 18.8573 9.84961 19.6164 9.84961C20.5541 9.84961 21.3132 10.414 21.7894 10.8894C21.8043 10.9042 21.8192 10.9191 21.8341 10.9339C22.742 11.7806 23.6053 12.6569 24.5132 13.5927C24.9746 14.068 25.4509 14.5433 25.9272 15.0335L29.9905 19.0886C31.5682 20.663 31.5682 22.1187 29.9905 23.6932C29.5589 24.1239 29.1422 24.5547 28.7105 24.9706C27.4603 26.248 28.4424 25.2678 27.1475 26.4264C27.1177 26.4561 27.088 26.471 27.0731 26.5007C25.793 27.7781 26.0312 29.0258 26.2991 29.8725C26.314 29.917 26.3289 29.9616 26.3438 30.0061C27.4005 32.561 28.8889 34.9672 31.1513 37.834L31.1662 37.8488C35.2742 42.8991 39.6054 46.8353 44.3832 49.8506C44.9934 50.2367 45.6186 50.5487 46.2139 50.8457C46.7497 51.1131 47.2558 51.3656 47.6874 51.633C47.747 51.6627 47.8065 51.7073 47.866 51.737C48.3721 51.9895 48.8484 52.1083 49.3396 52.1083C50.5749 52.1083 51.3489 51.3359 51.6019 51.0834L54.5194 48.1719C55.0255 47.6669 55.8292 47.0579 56.7669 47.0579C57.6897 47.0579 58.4488 47.6372 58.9102 48.1422C58.9251 48.1571 58.9251 48.1571 58.94 48.1719L67.141 56.3562C68.6741 57.8713 67.1559 61.0054 67.1559 61.0054Z" stroke="white" stroke-width="2" stroke-linecap="round" stroke-linejoin="round"/>
</svg>
